<?xml version="1.0" standalone="yes"?>
<svg xmlns="http://www.w3.org/2000/svg" width="1338" height="1343">
<path style="fill:#ffffff; stroke:none;" d="M1.02778 1.02771L0 18L0 67L0 264L0 1050L0 1268L0 1323L1.02778 1341.97L18 1343L67 1343L263 1343L1046 1343L1264 1343L1318 1343L1336.97 1341.97L1338 1325L1338 1276L1338 1079L1338 293L1338 75L1338 20L1336.97 1.02771L1318 0L1264 0L1047 0L263 0L67 0L18 0L1.02778 1.02771z"/>
<path style="fill:#000000; stroke:none;" d="M660 55.4244C633.838 58.8591 607.29 58.3472 581 62.4244C512.298 73.0795 445.197 95.2112 384 128.309C145.918 257.071 17.3678 535.686 75.4244 800C92.7113 878.702 125.042 952.427 170.344 1019C185.44 1041.18 202.558 1061.9 220.285 1082C226.163 1088.66 241.258 1099.04 243.793 1107.42C244.674 1110.34 240.743 1113.23 238.998 1115C235.269 1118.78 218.578 1131.18 220.921 1136.91C222.935 1141.84 231.033 1146.46 235 1149.87C247.284 1160.44 259.663 1170.91 272 1181.42C275.539 1184.44 283.826 1194.55 288.91 1193.46C295.195 1192.11 303.071 1177.93 306.881 1173C309.282 1169.9 311.683 1165.51 316.039 1167.83C327.89 1174.14 338.573 1183.46 350 1190.57C372.829 1204.79 396.574 1217.48 421 1228.69C523.45 1275.73 641.29 1293.41 753 1278.72C978.385 1249.08 1176.59 1094.57 1253.31 879C1270.42 830.924 1281.91 780.804 1286.83 730C1288.56 712.16 1289.78 693.908 1290 676C1290.09 668.189 1287.26 656.453 1289.32 649.148C1290.39 645.377 1294.91 646.006 1298 646L1325 646C1328.43 646 1335.02 647.391 1335.85 642.852C1338.31 629.524 1335.45 613.357 1334.17 600C1331.41 571.081 1328.08 542.416 1321.65 514C1293.31 388.751 1229.87 276.725 1137 187.961C1108.85 161.057 1077.89 136.806 1045 115.947C1034.8 109.479 1020.22 96.5294 1008.21 94.392C1004.5 93.7305 1002.16 100.443 1000.77 103C996.226 111.355 991.703 119.733 987 128C985.711 130.266 984.003 135.448 980.787 135.323C973.267 135.029 961.815 125.655 955 122.247C935.039 112.266 914.924 102.877 894 95.0502C837.313 73.8469 778.335 61.0472 718 56.9105C699.193 55.6211 678.809 52.9551 660 55.4244z"/>
<path style="fill:#ffffff; stroke:none;" d="M670.028 133.028C667.405 135.651 669 144.543 669 148C669 160.721 670 173.283 670 186C670 189.531 671.301 196.457 668.972 199.397C666.739 202.216 660.151 201 657 201C646.053 201 634.872 201.981 624 203.286C590.385 207.319 557.117 214.166 525 225.004C514.525 228.539 504.257 232.684 494 236.8C490.845 238.066 485.676 241.631 482.213 241.006C478.404 240.319 476.224 233.058 474.861 230C469.649 218.304 464.081 206.753 459 195C457.215 190.872 454.758 180.631 448.956 181.847C438.168 184.108 426.59 192.427 417 197.694C389.916 212.569 364.131 229.694 340 249C235.152 332.881 164.996 454.359 144.424 587C143.7 591.672 140.273 602.121 142.607 606.411C144.329 609.575 150.995 608.914 154 609.285C164.989 610.639 175.977 612.05 187 613.075C191.841 613.525 208.452 613.114 209.258 619.109C210.515 628.462 207.733 639.597 207.09 649C205.814 667.627 206.405 687.456 208.17 706C215.645 784.548 239.836 859.463 282.692 926C303.875 958.888 329.995 989.587 359 1015.83C368.944 1024.83 379.287 1033.56 390 1041.63C393.972 1044.62 402.682 1048.67 404.887 1053.18C406.544 1056.57 398.849 1064.37 397.025 1067C389.839 1077.38 382.518 1087.66 375.28 1098C373.225 1100.94 368.021 1105.94 369.306 1109.91C370.653 1114.06 377.593 1117.07 381 1119.33C392.992 1127.29 405.482 1134.35 418 1141.42C458.886 1164.52 503.564 1180.51 549 1191.87C563.198 1195.42 584.106 1203.31 598.772 1201.26C603.434 1200.6 603.043 1189.62 603.579 1186C605.501 1173.02 607.218 1160 609 1147C609.482 1143.49 609.186 1136.18 613.228 1134.69C619.727 1132.31 632.069 1136.44 639 1136.91C658.493 1138.25 678.432 1138.82 698 1137.96C726.104 1136.73 754.604 1132.61 782 1126.12C796.156 1122.76 811.646 1115.39 825.956 1113.91C831.9 1113.29 833.583 1123.75 835 1128C839.014 1140.03 843.184 1152.02 847.344 1164C848.374 1166.97 849.95 1175.14 853.419 1176.07C857.231 1177.09 863.495 1173.36 867 1172.05C879.578 1167.36 891.71 1161.79 904 1156.42C956.895 1133.35 1009.71 1097.34 1049.98 1055.99C1051.75 1054.17 1054.36 1051.84 1053.65 1049C1052.62 1044.84 1046.9 1040.9 1044 1038L1019 1013C1016.36 1010.36 1007.22 1004.01 1009.64 999.714C1013.3 993.215 1020.83 987.531 1025.83 982C1035.87 970.889 1045.23 959.052 1054.12 947C1056.84 943.307 1063.03 930.391 1068.09 930.447C1072.04 930.49 1076.83 935.264 1080 937.308C1090.4 944.004 1100.71 950.806 1111 957.667C1114.27 959.844 1122 967.421 1125.77 963.627C1132.49 956.859 1136.95 946.152 1141.8 938C1156.15 913.888 1167.55 888.076 1177.8 862C1181.24 853.25 1191.07 835.701 1189.5 826.303C1188.81 822.199 1178.3 820.989 1175 819.975C1162.7 816.192 1150.37 812.421 1138 808.859C1134.66 807.898 1126.99 806.836 1126.07 802.775C1124.09 794.093 1132.09 776.839 1134.12 768C1139.43 744.872 1140.95 721.437 1143.71 698C1144.6 690.461 1144 682.584 1144 675C1144 672.383 1143.25 667.891 1145.6 666.028C1148.54 663.699 1155.47 665 1159 665L1196 665C1199.43 665 1210.41 666.798 1212.4 663.397C1216.52 656.332 1212.08 640.85 1212 633C1211.67 598.752 1203.79 563 1195.12 530C1167.35 424.391 1105.71 327.756 1022 257.754C1003.58 242.354 984.308 228.118 964 215.319C956.093 210.335 947.039 202.731 938.015 200.052C932.062 198.285 928.987 207.921 926.769 212C921.498 221.694 915.956 231.255 910.78 241C908.499 245.294 906.145 252.323 902.363 255.469C898.108 259.008 888.035 250.692 884 248.781C869.598 241.96 854.973 235.529 840 230.053C835.345 228.351 825.046 226.761 821.929 222.775C819.533 219.712 824.601 210.329 825.576 207C828.925 195.562 832.91 184.31 836.667 173C837.867 169.386 841.058 163.112 840.072 159.278C839.22 155.966 833.729 155.358 831 154.579C822.021 152.015 813.076 149.334 804 147.13C771.448 139.224 739.039 136.613 706 132.714C697.368 131.696 688.689 132 680 132C677.422 132 672.042 131.013 670.028 133.028z"/>
<path style="fill:#000000; stroke:none;" d="M652 295.424C629.115 298.429 606.542 300.26 584 305.895C524.313 320.817 468.592 350.92 423 392.17C388.563 423.327 360.482 461.538 339.753 503C267.167 648.19 300.079 832.133 419 942.911C464.661 985.445 520.678 1016.26 581 1032.12C627.805 1044.42 677.121 1047.01 725 1040.72C900.667 1017.62 1042.17 866.933 1049.96 689C1057.74 511.339 939.411 348.979 766 305.627C730.268 296.694 688.825 290.59 652 295.424z"/>
<path style="fill:#ffffff; stroke:none;" d="M509.79 399.136C504.865 399.743 498.98 405.282 495 408.026C482.771 416.454 470.743 425.767 460 436.039C456.865 439.037 447.09 446.02 448.346 450.996C449.212 454.43 453.541 456.944 456 459.17C462.562 465.11 468.36 471.858 475 477.714C477.832 480.212 484.811 484.431 483.079 489C480.215 496.555 470.097 504.429 465.13 511C453.733 526.077 443.461 542.602 436.001 560C433.713 565.335 425.873 577.755 427.788 583.581C429.627 589.176 450.633 592.878 456 594.667C466.371 598.124 476.634 601.877 487 605.333C490.338 606.446 497.02 607.368 499.071 610.51C500.976 613.429 498.13 619.014 497.294 622C494.483 632.039 495.455 645.596 491.397 654.852C488.954 660.423 478.656 657.031 474 657.001C458.993 656.904 443.983 654.695 429 654.039C425.989 653.908 416.217 652.076 414.028 654.067C410.305 657.453 411.83 671.477 412.424 676C414.22 689.672 414.167 703.333 416.803 717C417.608 721.172 421.4 730.491 419.508 734.436C418.217 737.128 412.545 737.49 410 738.127C400.312 740.548 390.689 743.204 381 745.627C377.881 746.406 371.044 746.908 369.697 750.419C367.604 755.875 373.905 767.715 375.667 773C383.16 795.476 393.426 816.825 405.811 837C445.911 902.323 509.988 950.575 583 973.025C599.946 978.235 617.391 982.048 635 984.155C642.196 985.016 650.622 987.181 657.852 985.852C662.691 984.962 661.981 976.737 661.999 973C662.044 963.617 662.996 954.379 663 945C663.001 941.858 662.16 936.216 664.858 933.889C668.435 930.804 680.257 933.047 685 932.424C706.707 929.574 727.731 928.617 749 922.279C753.601 920.908 766.383 918.855 768.868 914.49C770.862 910.988 766.331 903.337 765 900C759.566 886.372 754.434 872.628 749 859C747.56 855.389 741.209 844.336 744.528 841.075C751.18 834.538 765.739 830.815 774 825.797C790.966 815.491 806.622 801.513 818.996 786C825.296 778.103 831.21 769.832 836.138 761C837.763 758.087 839.577 751.593 843.213 750.665C847.112 749.671 853.5 754.487 857 756C870.188 761.702 883.146 768.33 896 774.753C899.971 776.737 910.931 784.248 914.637 779.667C921.164 771.597 923.793 757.715 926.999 748C938.906 711.925 941.65 672.508 936.718 635C934.97 621.704 927.886 606.216 928.067 593.109C928.13 588.533 935.637 587.783 939 586.667C948.606 583.476 958.287 580.421 968 577.576C970.693 576.787 976.25 575.966 977.071 572.722C978.032 568.927 974.573 562.552 973.308 559C969.062 547.08 963.975 535.276 958.244 524C956.575 520.717 953.423 511.72 948.895 511.967C939.177 512.497 924.334 525.237 916 530.201C913.037 531.965 907.003 537.103 903.379 535.122C899.172 532.823 896.105 524.88 893.414 521C885.897 510.164 877.913 499.665 868.911 490C865.942 486.813 860.581 479.246 856.015 478.631C851.997 478.09 847.458 485.505 844.996 488C834.4 498.741 824.549 510.197 814.015 521C810.916 524.178 805.312 533.832 800 531.944C792.314 529.211 785.002 519.918 778 515.435C760.915 504.497 742.66 496.071 723 490.884C715.778 488.979 708.385 487.538 701 486.427C698.521 486.055 694.896 486.314 693.603 483.682C691.615 479.636 693.79 473.284 694 469C694.704 454.637 697.296 440.366 698 426C698.166 422.613 701.536 409.624 698.357 407.603C691.732 403.39 676.573 405.988 669 406C637.562 406.051 605.034 413.878 576 425.604C567.474 429.048 559.09 432.933 551 437.309C548.132 438.86 543.656 442.757 540.185 442.157C536.887 441.588 534.919 436.531 533.4 434C528.391 425.659 523.504 417.232 518.319 409C516.635 406.328 513.682 398.656 509.79 399.136z"/>
<path style="fill:#000000; stroke:none;" d="M663 547.424C601.583 555.588 558.992 601.819 553.17 663C552.056 674.702 553.961 687.613 556.654 699C557.654 703.224 561.904 710.537 560.454 714.786C558.854 719.476 548.163 721.829 544 723.576C527.702 730.415 511.262 736.924 495 743.85C490.888 745.602 478.099 748.516 476.816 753.275C475.846 756.872 479.73 762.863 481.259 766C486.858 777.488 493.854 788.749 501.478 799C526.394 832.499 560.368 857.072 599 872.399C610.407 876.924 628.363 884.492 640.852 883.092C646.241 882.488 646.211 866.321 646.92 862C649.703 845.038 651.863 827.971 654.589 811C655.359 806.21 654.992 796.144 658.6 792.603C661.842 789.422 668.097 791.643 672 791.911C680.861 792.517 690.291 791.149 699 789.576C724.742 784.925 750.594 771.106 767.561 751C825.697 682.108 794.397 568.191 702 549.6C689.38 547.061 675.843 545.717 663 547.424z"/>
<path style="fill:#ffffff; stroke:none;" d="M666 611.464C657.458 612.973 649.171 616.205 642 621.093C590.269 656.356 626.904 738.309 687 726.905C695.038 725.38 703.362 722.016 710 717.214C758.786 681.93 726.035 600.856 666 611.464z"/>
</svg>
